<?xml version="1.0" encoding="UTF-8" standalone="no"?>
<!-- Created with Inkscape (http://www.inkscape.org/) -->
<svg
   xmlns:svg="http://www.w3.org/2000/svg"
   xmlns="http://www.w3.org/2000/svg"
   version="1.0"
   width="487.96982"
   height="261.90985"
   id="svg2">
  <defs
     id="defs5" />
  <path
     d="M 251.375,0 C 250.23004,0.031944061 248.73147,0.1254525 246.75,0.25 C 237.58976,0.82578 231.70209,2.8113898 230.0625,5.875 C 229.46662,6.9883902 228.07567,14.34807 226.96875,22.21875 C 225.86182,30.089431 224.74416,37.92277 224.46875,39.625 C 224.08833,41.976268 222.68799,43.59823 218.65625,46.375 C 215.73743,48.385268 213.07021,50.03125 212.75,50.03125 C 211.43255,50.031251 203.49691,42.65434 200.0625,38.25 C 196.50714,33.690559 191.54486,23.66043 190.8125,19.53125 C 190.46464,17.570039 189.5756,17.50506 144.6875,17.25 L 98.90625,17 L 102.90625,24.25 L 106.9375,31.53125 L 143.21875,31.78125 L 179.53125,32.03125 L 181.28125,37 C 185.22257,48.097031 201.96257,68.03729 210.25,71.5 L 213.6875,72.9375 L 214.3125,82.71875 C 214.65699,88.107471 215.25623,102.53165 215.625,114.78125 L 216.28125,137.0625 L 218.375,135.71875 C 220.14397,134.57656 223.48768,130.22595 228.125,123.03125 C 228.76012,122.04589 229.28086,121.89873 229.59375,122.625 C 231.47368,126.98864 236.24503,133.16122 237.09375,132.3125 C 237.63291,131.77334 239.28618,125.87306 240.75,119.1875 C 242.21381,112.50194 243.67652,107.03125 244,107.03125 C 244.32348,107.03125 245.78618,112.50194 247.25,119.1875 C 248.71383,125.87306 250.33584,131.77334 250.875,132.3125 C 251.71963,133.15713 256.29014,127.26953 258.40625,122.625 C 258.71953,121.93737 259.42861,122.24006 260.21875,123.40625 C 260.92298,124.44563 262.85,127.3541 264.5,129.84375 C 266.14999,132.33342 268.43908,134.9732 269.59375,135.71875 L 271.6875,137.0625 L 272.34375,114.78125 C 272.71252,102.53165 273.31176,88.10747 273.65625,82.71875 L 274.28125,72.9375 L 277.71875,71.5 C 286.00618,68.03729 302.74618,48.09703 306.6875,37 L 308.4375,32.03125 L 344.75,31.78125 L 381.03125,31.53125 L 385.0625,24.28125 L 389.0625,17.03125 L 343.5,17.03125 C 300.97453,17.031249 297.87333,17.148 297.375,18.78125 C 295.18321,25.964749 291.23797,34.16003 288.03125,38.1875 C 284.46225,42.669958 276.50996,50.03125 275.21875,50.03125 C 274.89855,50.031251 272.29533,48.40576 269.4375,46.4375 C 264.67791,43.15944 264.08161,42.34293 262.5,36.5 C 261.55036,32.9917 258.82564,26.93593 256.4375,23.0625 L 252.09375,16.03125 L 254.9375,16.03125 C 256.49443,16.031249 258.82656,15.07928 260.125,13.9375 L 262.5,11.875 L 260,12.40625 C 257.07369,13.04587 253,12.16871 253,10.90625 C 253,10.41588 255.44841,10.03125 258.46875,10.03125 C 262.87727,10.03125 264.21606,10.42568 265.21875,12.03125 C 267.00118,14.88538 268,14.50917 268,10.96875 C 267.99999,6.4814799 266.54354,4.4742102 262,2.65625 C 256.77309,0.56485008 256,0.60952982 256,3.03125 C 256,4.46267 255.30334,5.03125 253.625,5.03125 C 252.33525,5.0312498 250.49549,5.93125 249.5,7.03125 C 247.30952,9.4517098 245.68636,9.55115 243.90625,7.40625 C 243.1705,6.5197301 241.65034,5.42236 240.53125,4.96875 C 239.20809,4.4324098 241.38505,4.13497 246.75,4.09375 C 254.49465,4.03425 255,3.8848102 255,1.875 C 255,0.33236253 254.80989,-0.095832183 251.375,0 z M 246.5,5.03125 C 245.125,5.0312498 244,5.4151 244,5.90625 C 244,7.0574401 246.14186,7.8422 247.75,7.28125 C 249.92998,6.5208302 249.09883,5.03125 246.5,5.03125 z M 48.9375,17.03125 C 22.020638,17.031249 -0.0083,17.36875 0,17.78125 C 0.0083,18.193749 2.26111,21.56875 5,25.28125 L 9.96875,32.03125 L 57.84375,32.03125 L 105.71875,32.03125 L 101.78125,24.53125 L 97.875,17.03125 L 48.9375,17.03125 z M 390.125,17.03125 L 386.5625,23.75 C 384.60072,27.4445 383,30.8195 383,31.25 C 382.99999,31.68049 404.37219,32.03125 430.5,32.03125 L 478,32.03125 L 482.96875,25.28125 C 485.70762,21.568749 487.96045,18.19375 487.96875,17.78125 C 487.97705,17.368749 465.97571,17.03125 439.0625,17.03125 L 390.125,17.03125 z M 11.625,34.03125 L 14.03125,36.78125 C 15.3497,38.293751 19.13846,42.34375 22.4375,45.78125 L 28.4375,52.03125 L 77.21875,52.03125 C 104.04714,52.031251 126,51.79296 126,51.53125 C 126,51.269541 125.08912,49.6034 124,47.8125 C 122.91089,46.021589 121.49216,42.17864 120.84375,39.28125 L 119.65625,34.03125 L 65.65625,34.03125 L 11.625,34.03125 z M 129.5,34.03125 C 124.825,34.031251 121,34.43249 121,34.9375 C 121,38.453648 122.24878,39.03125 130.09375,39.03125 C 137.84629,39.031251 138,38.98676 138,36.53125 C 138,34.060661 137.9,34.03125 129.5,34.03125 z M 146.90625,34.03125 C 140.24814,34.12869 140.30151,34.84268 141.625,39.78125 C 142.35792,42.516161 141.93439,42.54357 150.5,38.84375 C 154.35,37.180791 157.915,35.43415 158.4375,34.9375 C 159.00639,34.39675 155.69675,34.03125 150.1875,34.03125 C 148.94695,34.03125 147.85741,34.01733 146.90625,34.03125 z M 162.71875,34.03125 L 163.3125,37.6875 C 163.6395,39.702529 164.25503,41.6962 164.6875,42.125 C 165.11998,42.5538 168.03368,41.52165 171.15625,39.84375 C 178.67959,35.801131 178.10004,34.03125 169.25,34.03125 L 162.71875,34.03125 z M 318.59375,34.03125 C 309.77865,34.031251 309.31143,35.83747 317.0625,39.96875 L 323,43.15625 L 324,40.53125 C 326.19728,34.751999 325.59181,34.03125 318.59375,34.03125 z M 337.78125,34.03125 C 332.29314,34.031251 328.96454,34.40068 329.53125,34.9375 C 330.32005,35.68469 344.58028,42.03125 345.46875,42.03125 C 345.62201,42.031251 346.01212,41.01875 346.34375,39.78125 C 347.85632,34.137171 347.70565,34.03125 337.78125,34.03125 z M 358.5,34.03125 C 350.09999,34.031251 350,34.06066 350,36.53125 C 349.99999,38.986761 350.12246,39.03125 357.875,39.03125 C 364.14989,39.031251 365.89245,38.69502 366.375,37.4375 C 367.57027,34.322648 366.88779,34.03125 358.5,34.03125 z M 368.3125,34.03125 L 367.125,39.28125 C 366.4766,42.178639 365.05786,46.02159 363.96875,47.8125 C 362.87963,49.603399 362,51.26954 362,51.53125 C 361.99999,51.792961 383.92161,52.03125 410.75,52.03125 L 459.53125,52.03125 L 465.53125,45.78125 C 468.83028,42.343751 472.61905,38.29375 473.9375,36.78125 L 476.34375,34.03125 L 422.3125,34.03125 L 368.3125,34.03125 z M 159.53125,38.1875 L 156,39.6875 C 154.06118,40.521931 150.5875,41.95384 148.25,42.84375 C 145.9125,43.733649 144,44.8316 144,45.28125 C 144,47.217512 149.12791,56.01403 150.25,56 C 150.92824,55.99152 154.27033,54.4193 157.65625,52.5 L 163.8125,49 L 161.65625,43.59375 L 159.53125,38.1875 z M 328.4375,38.1875 L 326.3125,43.59375 L 324.15625,49.03125 L 330.4375,52.53125 C 333.8778,54.455159 337.18712,56.03125 337.8125,56.03125 C 338.43789,56.031251 340.08449,53.79422 341.46875,51.0625 C 342.85303,48.33079 344,45.7309 344,45.28125 C 343.99999,44.831602 342.0875,43.73365 339.75,42.84375 C 337.41249,41.953839 333.90756,40.52193 331.96875,39.6875 L 328.4375,38.1875 z M 177.46875,40.03125 C 177.22006,40.031251 174.56188,41.21647 171.5625,42.6875 L 166.125,45.375 L 168.0625,49.1875 C 169.13588,51.291469 170.34868,53.01045 170.75,53 C 171.15133,52.989549 173.6375,51.64056 176.25,50 C 178.8625,48.359441 181,46.77006 181,46.46875 C 181,45.56851 177.95786,40.03125 177.46875,40.03125 z M 310.5,40.03125 C 309.59839,40.031251 306.91031,46.11574 307.4375,46.96875 C 308.00843,47.892519 316.46205,53.03125 317.40625,53.03125 C 317.70962,53.031251 318.83288,51.29147 319.90625,49.1875 L 321.84375,45.375 L 316.40625,42.6875 C 313.40687,41.216469 310.74869,40.03125 310.5,40.03125 z M 122.03125,41.03125 L 123.15625,43.53125 C 124.18633,45.792031 124.85161,45.99815 129.90625,45.875 C 132.98046,45.800098 136.44695,45.57431 137.625,45.34375 C 139.17723,45.039962 139.61853,44.37801 139.25,42.96875 C 138.79744,41.238169 137.81654,41.03125 130.375,41.03125 L 122.03125,41.03125 z M 357.09375,41.03125 C 350.20572,41.031251 349.15038,41.2557 348.71875,42.90625 C 348.31909,44.43451 348.90919,44.9209 351.84375,45.40625 C 358.62376,46.52761 363.72615,46.12837 364.375,44.4375 C 365.56453,41.337608 364.88205,41.03125 357.09375,41.03125 z M 124.75,47.03125 L 126.21875,49.28125 C 127.49455,51.208321 128.73504,51.56086 134.84375,51.8125 C 138.94791,51.98156 142,51.70982 142,51.15625 C 142,47.581729 140.7462,47.03125 132.75,47.03125 L 124.75,47.03125 z M 351.78125,47.15625 C 348.75608,47.191971 347.28225,47.527535 346.84375,48.21875 C 344.86223,51.342339 345.94245,52.03125 352.9375,52.03125 C 359.00308,52.031251 360.05709,51.74683 361.4375,49.78125 L 363.03125,47.53125 L 355.34375,47.21875 C 353.97615,47.166262 352.78964,47.144343 351.78125,47.15625 z M 182.75,49.1875 L 177.625,52.28125 C 174.80601,53.980729 172.3269,55.50522 172.125,55.65625 C 171.49047,56.13088 176.44978,61.92622 177.5,61.9375 C 178.05,61.94341 180.4125,60.59311 182.75,58.9375 C 185.0875,57.281892 187,55.70463 187,55.4375 C 187,55.170361 186.04351,53.643 184.875,52.0625 L 182.75,49.1875 z M 305.21875,49.1875 L 303.125,52.0625 C 301.95649,53.643 301,55.16665 301,55.4375 C 300.99999,56.155599 309.68896,62.03403 310.65625,61.96875 C 311.10714,61.93832 312.54185,60.55308 313.84375,58.90625 C 315.14565,57.25942 316.04566,55.80728 315.84375,55.65625 C 315.64184,55.50522 313.19399,53.98073 310.375,52.28125 L 305.21875,49.1875 z M 164.90625,52.03125 C 163.70406,52.031251 152,59.00137 152,59.71875 C 152,60.880729 157.07409,69.03165 157.78125,69 C 158.17058,68.982582 159.85,67.98877 161.5,66.8125 C 163.15,65.636241 165.93837,63.61637 167.71875,62.3125 L 170.96875,59.9375 L 168.34375,55.96875 C 166.90279,53.791299 165.3537,52.03125 164.90625,52.03125 z M 323.0625,52.03125 C 322.61506,52.031251 321.10519,53.76399 319.6875,55.90625 C 317.28571,59.5356 317.20213,59.89751 318.78125,61.25 C 321.10895,63.243642 329.72635,69.03125 330.375,69.03125 C 330.66523,69.031247 332.03931,67.07332 333.4375,64.6875 C 334.83569,62.301678 336,60.05658 336,59.71875 C 335.99999,59.001369 324.2647,52.03125 323.0625,52.03125 z M 79.40625,53.03125 C 52.777997,53.031251 31,53.38979 31,53.84375 C 30.999999,54.877151 41.67689,63.52101 48.96875,68.375 L 54.46875,72.03125 L 93.96875,71.84375 C 115.70108,71.738479 137.72823,71.40098 142.90625,71.09375 L 152.3125,70.53125 L 148.40625,69.15625 C 142.83786,67.193102 136.13514,62.49454 131.65625,57.40625 L 127.8125,53.03125 L 79.40625,53.03125 z M 360.09375,53.03125 L 356.78125,57.03125 C 353.08976,61.519421 345.50121,66.90744 339.625,69.1875 C 335.81243,70.666842 335.98084,70.69673 350.125,71.34375 C 358.03109,71.705406 380.01766,72.02924 399,72.03125 L 433.5,72.03125 L 439,68.375 C 446.29187,63.521008 457,54.87715 457,53.84375 C 456.99999,53.389791 435.17519,53.03125 408.53125,53.03125 L 360.09375,53.03125 z M 354.84375,53.375 C 350.7997,53.480466 344.19342,54.657592 343.25,55.84375 C 341.13037,58.508751 341.78557,59.03125 347.34375,59.03125 C 351.25733,59.031251 353.42177,58.44933 355.34375,56.9375 C 356.79293,55.79758 358,54.48938 358,54 C 358,53.514491 356.68196,53.327061 354.84375,53.375 z M 131.96875,53.40625 C 130.74531,53.444201 130,53.577775 130,53.8125 C 130,54.281941 131.03955,55.64787 132.3125,56.84375 C 134.12854,58.54983 135.85132,59.03125 140.3125,59.03125 C 143.43955,59.031251 146,58.66363 146,58.21875 C 146,55.70225 143.00752,54.22216 136.75,53.625 C 134.89375,53.44786 133.19219,53.368299 131.96875,53.40625 z M 189.125,58.65625 C 188.59299,58.743569 187.98363,59.093664 187.03125,59.65625 C 185.56286,60.523651 183.27356,62.05471 181.9375,63.0625 L 179.5,64.90625 L 182.4375,67.96875 C 184.0503,69.652142 185.63327,71.03125 185.96875,71.03125 C 186.30422,71.031247 188.32853,69.22303 190.46875,67.03125 L 194.375,63.0625 L 192.03125,60.5625 C 190.64323,59.085013 190.01168,58.510718 189.125,58.65625 z M 298.3125,58.65625 C 297.65647,58.775281 297.04792,59.38051 295.9375,60.5625 L 293.59375,63.0625 L 297.5,67.03125 C 299.64021,69.223032 301.66452,71.03125 302,71.03125 C 302.33549,71.031247 303.91846,69.65214 305.53125,67.96875 L 308.46875,64.90625 L 306.03125,63.0625 C 304.69518,62.05471 302.40589,60.52365 300.9375,59.65625 C 299.66765,58.906136 298.96853,58.537219 298.3125,58.65625 z M 143.90625,61.125 C 143.47963,61.138099 143.01675,61.185657 142.5,61.21875 L 137.625,61.53125 L 142.6875,64.28125 C 147.64666,66.969607 151.01326,67.78249 150.96875,66.28125 C 150.95651,65.868747 150.13497,64.49084 149.15625,63.21875 C 147.83878,61.506384 146.89261,61.033306 143.90625,61.125 z M 342.90625,61.125 C 340.81085,61.192028 339.94079,61.752267 338.8125,63.21875 C 337.83379,64.49084 337.01223,65.86875 337,66.28125 C 336.95519,67.793017 340.61143,66.90694 345.40625,64.25 L 350.3125,61.53125 L 345.46875,61.21875 C 344.44009,61.152623 343.60472,61.102657 342.90625,61.125 z M 172.75,63.03125 C 171.49151,63.031251 159.96526,70.96769 160,71.8125 C 160.04267,72.849813 165.81767,79.02537 166.71875,79 C 167.13901,78.988172 169.975,76.92773 173,74.40625 C 176.025,71.88476 178.67134,69.62868 178.90625,69.40625 C 179.48041,68.86261 173.84953,63.03125 172.75,63.03125 z M 315.21875,63.03125 C 314.74147,63.031251 313.0529,64.4029 311.4375,66.09375 C 308.85682,68.794978 308.66025,69.3107 310.03125,70.34375 C 310.88943,70.990398 313.6578,73.21875 316.15625,75.28125 C 318.6547,77.343747 321.1004,78.97721 321.59375,78.9375 C 322.08712,78.897792 323.7375,77.38577 325.25,75.5625 C 326.76249,73.73922 328,72.00402 328,71.6875 C 327.99999,70.928421 316.33832,63.03125 315.21875,63.03125 z M 291.46875,65.0625 L 288.75,67.28125 L 286.03125,69.53125 L 289.8125,73.875 L 293.59375,78.25 L 296.53125,75.6875 L 299.5,73.125 L 295.46875,69.09375 L 291.46875,65.0625 z M 196.3125,65.125 L 192.5,69.03125 C 189.21183,72.398636 188.8571,73.15414 190,74.53125 C 193.16679,78.347002 194.59961,78.16987 198.375,73.5625 L 202,69.15625 L 199.15625,67.125 L 196.3125,65.125 z M 181.53125,72.03125 C 181.068,72.031247 178.65471,73.71875 176.15625,75.78125 C 173.6578,77.843747 170.88944,80.03846 170.03125,80.6875 C 168.66706,81.719221 168.92457,82.31637 171.9375,85.4375 C 173.83289,87.400961 175.64693,89.03125 175.96875,89.03125 C 176.29057,89.031247 179.12649,86.40678 182.28125,83.21875 L 188.03125,77.4375 L 185.1875,74.71875 C 183.63543,73.231777 181.99451,72.03125 181.53125,72.03125 z M 306.4375,72.03125 C 305.97423,72.031247 304.33332,73.23178 302.78125,74.71875 L 299.9375,77.4375 L 305.6875,83.21875 C 308.84227,86.406777 311.67817,89.03125 312,89.03125 C 312.32181,89.031247 314.13586,87.40096 316.03125,85.4375 C 319.04419,82.316371 319.30168,81.71922 317.9375,80.6875 C 317.07932,80.038461 314.31095,77.84375 311.8125,75.78125 C 309.31403,73.718747 306.90076,72.03125 306.4375,72.03125 z M 283.25,72.21875 C 282.52224,72.291159 281.69656,72.80003 280.4375,73.625 C 277.33313,75.659052 277.39824,76.65975 280.78125,81.125 L 283.5,84.71875 L 287.28125,82.34375 L 291.03125,79.96875 L 287.75,76 C 285.41576,73.18862 284.46293,72.098069 283.25,72.21875 z M 204.46875,72.3125 C 203.49326,72.347829 202.62121,73.255606 200.59375,75.59375 C 198.72509,77.748783 197.37761,79.79911 197.59375,80.15625 C 197.80989,80.51339 199.46501,81.70964 201.28125,82.78125 L 204.59375,84.71875 L 207.375,80.84375 C 210.51551,76.474733 210.36865,75.11401 206.59375,73.09375 C 205.65579,72.591771 205.05404,72.291302 204.46875,72.3125 z M 190.15625,79 L 184.375,85.625 L 178.5625,92.21875 L 182.03125,95.09375 C 183.93544,96.672544 185.95,97.9478 186.5,97.9375 C 187.05,97.92719 189.65491,95.029442 192.3125,91.5 C 194.97011,87.970548 196.86798,84.63859 196.53125,84.09375 C 196.19451,83.548907 194.61577,82.19078 193.03125,81.0625 L 190.15625,79 z M 297.8125,79 L 294.9375,81.0625 C 293.35298,82.190778 291.77423,83.54891 291.4375,84.09375 C 290.74191,85.219207 299.96637,97.90875 301.5,97.9375 C 302.04999,97.9478 304.0333,96.67254 305.9375,95.09375 L 309.40625,92.21875 L 303.59375,85.625 L 297.8125,79 z M 210.3125,81.46875 C 210.03149,81.536151 209.63972,82.281644 208.9375,83.59375 C 207.76185,85.790462 207.78549,86.27445 209.03125,87.0625 C 211.48768,88.616407 211.95565,88.15999 211.3125,84.78125 C 210.86264,82.41791 210.67379,81.382092 210.3125,81.46875 z M 277.53125,81.46875 C 277.24011,81.614316 277.05613,82.680505 276.65625,84.78125 C 276.01309,88.159987 276.48108,88.61641 278.9375,87.0625 C 280.18327,86.274447 280.2069,85.79046 279.03125,83.59375 C 278.22872,82.094201 277.82239,81.323184 277.53125,81.46875 z M 200.25,86.125 L 195.5625,92.15625 C 192.98339,95.477412 190.62484,98.79873 190.34375,99.53125 C 189.90836,100.66582 197.26115,106.03125 199.25,106.03125 C 199.57511,106.03125 201.94691,102.61515 204.53125,98.46875 C 207.11558,94.322349 209.08276,90.77974 208.875,90.59375 C 208.66723,90.40776 206.64308,89.33086 204.375,88.1875 L 200.25,86.125 z M 287.71875,86.125 L 283.59375,88.1875 C 281.32568,89.330858 279.32177,90.41876 279.125,90.59375 C 278.61798,91.044677 288.06006,106.01147 288.84375,106 C 289.19933,105.9948 291.43684,104.82997 293.8125,103.40625 C 296.3998,101.85567 297.92828,100.29033 297.625,99.5 C 297.34653,98.774332 294.98536,95.477412 292.40625,92.15625 L 287.71875,86.125 z M 211.5625,94.03125 C 211.11544,94.031249 203,106.71 203,107.40625 C 203,107.98412 208.93939,110.03125 210.625,110.03125 C 211.64682,110.03125 212,108.0829 212,102.03125 C 212,97.631249 211.7882,94.03125 211.5625,94.03125 z M 276.40625,94.03125 C 276.18056,94.031249 276,97.63125 276,102.03125 C 275.99999,110.72287 276.3464,111.13808 281.9375,108.90625 C 283.29234,108.36542 284.5829,107.76084 284.78125,107.5625 C 285.18261,107.16114 277.05581,94.03125 276.40625,94.03125 z M 229.03125,126.03125 C 227.92832,126.03125 226,130.79857 226,133.5 C 226,136.98211 223.41222,139.03125 219,139.03125 C 215.36516,139.03125 212,140.97961 212,143.09375 C 212,144.58374 218.69599,144.18139 219.28125,142.65625 C 219.56991,141.904 220.87357,141.05827 222.15625,140.78125 C 223.43893,140.50422 225.2875,139.93582 226.25,139.53125 C 228.54171,138.56796 228.62505,142.11368 226.40625,145.5 C 225.04408,147.57895 225.27479,149.61732 227,151.59375 C 227.15289,153.27377 227.21386,154.89598 227.125,155.25 C 226.86595,156.28213 226.15139,156.37146 225.34375,155.5 C 224.72338,154.83061 224.54807,154.80132 223.90625,155.09375 C 222.15702,155.89076 219.9238,155.20898 218.90625,153.5625 C 218.4468,152.81912 217.75543,152.27017 216.6875,151.78125 C 213.94922,150.52762 213.62039,151.1751 214.90625,155.28125 C 215.68752,157.77612 215.81302,158.49543 215.59375,159.375 C 215.21671,160.88745 213.83851,161.71875 211.8125,161.71875 C 210.05958,161.71875 209.5979,161.54122 207.53125,159.96875 C 205.95714,158.77106 205.04099,158.60524 204.03125,159.3125 C 202.47186,160.40474 202.14898,162.92403 202.96875,167.625 C 203.50801,170.71736 203.77433,171.22014 204.78125,171.21875 C 205.95875,171.21714 206.92537,170.46584 211,166.5 C 213.05265,164.50215 215.41003,162.40397 216.21875,161.84375 C 217.76219,160.77459 219.822,160.25234 220.1875,160.84375 C 220.60311,161.51622 219.63213,162.5755 212.65625,169.1875 C 209.45987,172.21713 208.56639,173.22969 208.5625,173.8125 C 208.5565,174.70761 209.30171,175.42057 210.78125,175.96875 C 212.55946,176.62758 215.12891,176.35205 216.75,175.34375 C 218.54997,174.2242 218.95288,173.62163 218.1875,173.0625 C 216.85745,172.09086 215.46875,170.51256 215.46875,170 C 215.46875,169.0174 216.26876,167.85547 217.28125,167.375 C 218.67391,166.71414 222.13232,166.75201 224.71875,167.46875 L 226.78125,168.0625 L 228.09375,167.40625 C 229.76891,166.57417 229.8621,165.98081 228.5,164.8125 C 226.46899,163.07048 226.09375,162.63629 226.09375,161.9375 C 226.09375,160.27599 227.73149,159.45055 231.1875,159.4375 C 232.18473,159.43373 233.24244,159.31081 233.53125,159.15625 C 234.13157,158.83495 234.6875,157.43324 234.6875,156.25 C 234.6875,155.33219 235.22357,153.96876 235.59375,153.96875 C 235.73021,153.96875 235.98731,154.34703 236.15625,154.78125 C 236.62669,155.9903 236.24957,158.74849 235.40625,160.1875 L 234.65625,161.4375 L 231.9375,161.4375 C 230.44413,161.4375 229.25,161.52149 229.25,161.625 C 229.25,162.07293 230.76984,163.79375 231.53125,164.1875 C 232.76332,164.82462 236.03228,164.74789 237.15625,164.0625 C 238.2448,163.39871 238.41298,162.65113 238.40625,158.75 C 238.40216,156.37461 238.25812,155.31481 237.5625,152.96875 C 237.09433,151.38978 236.72151,149.63121 236.71875,149.03125 C 236.70907,146.92502 235.41622,145.57334 233.875,146.0625 C 233.03576,146.32886 232.73639,147.46536 232.53125,151.125 C 232.32933,154.72765 232.01745,155.80097 231.0625,155.9375 C 230.11845,156.07249 229.65876,154.9968 229.71875,152.90625 C 230.03542,152.60852 230.33997,152.08388 230.71875,151.28125 C 231.61117,149.3902 231.64496,148.34039 230.84375,147.375 C 230.19669,146.59533 230.018,144.60076 230.40625,142.53125 C 230.96553,139.54997 231.48461,139.013 233.78125,139 C 235.26884,138.99157 237.15917,138.57449 237.96875,138.0625 C 239.25861,137.24678 239.22962,137.07033 237.90625,136.5625 C 237.07563,136.24377 235.29146,136.09835 233.9375,136.25 C 231.91191,136.47688 231.46547,136.0883 231.4375,134.03125 C 231.39336,130.78431 229.96682,126.03125 229.03125,126.03125 z M 258.9375,126.03125 C 258.00193,126.03125 256.5754,130.78431 256.53125,134.03125 C 256.50329,136.0883 256.05684,136.47688 254.03125,136.25 C 252.67729,136.09835 250.89312,136.24377 250.0625,136.5625 C 248.73913,137.07033 248.71014,137.24678 250,138.0625 C 250.80958,138.57449 252.69992,138.99158 254.1875,139 C 256.48413,139.01299 257.00321,139.54997 257.5625,142.53125 C 257.95692,144.63369 257.7668,146.59527 257.09375,147.40625 C 256.25333,148.41889 256.30052,149.42668 257.34375,151.4375 L 258.65625,153.90625 L 258.65625,153.9375 C 258.50809,154.66131 258.14377,155.14435 257.71875,155.0625 C 256.90711,154.9062 256.5616,153.74569 256.28125,150.1875 C 256.01079,146.75475 255.72114,145.9375 254.75,145.9375 C 253.92789,145.9375 253.43502,147.02139 253.09375,149.53125 C 252.92202,150.79441 252.57926,153.06248 252.34375,154.5625 C 251.77131,158.20849 251.77706,162.56591 252.34375,163.375 C 253.28938,164.72507 258.11038,165.40943 260.28125,164.5 C 261.62127,163.93862 262.61695,162.79477 262.5,161.96875 C 262.40557,161.30174 262.37502,161.31815 259.25,161.40625 C 256.45433,161.48508 255.96627,161.40415 255.125,160.875 C 253.91491,160.11387 253.34376,158.74459 253.34375,156.59375 C 253.34375,155.36943 253.49368,154.72091 253.875,154.25 C 254.94774,152.92523 255.65624,154.1332 255.65625,157.3125 C 255.65625,158.52861 255.76848,158.95218 256.28125,159.4375 C 256.87917,160.0034 257.13162,160.04382 259.65625,159.875 C 263.81796,159.59668 263.99019,159.61518 264.5,160.125 C 264.79649,160.42151 264.95603,161.01233 264.9375,161.71875 C 264.91272,162.66403 264.67716,163.1436 263.4375,164.5 C 261.66797,166.43615 261.61719,167.03188 263.25,167.96875 C 264.09173,168.45171 264.77043,168.60881 265.8125,168.5625 C 267.09895,168.50534 267.3029,168.5733 267.75,169.3125 C 268.3654,170.32991 268.78692,170.6194 269.75,170.625 C 270.62757,170.6301 271.4375,169.61976 271.4375,168.5 C 271.4375,167.82725 271.3366,167.75 270.125,167.75 C 268.75878,167.75 267.71876,167.37492 267.71875,166.875 C 267.71875,166.47332 269.52358,165.74999 270.53125,165.75 C 271.97406,165.75 273.09358,166.313 273.46875,167.21875 C 273.89323,168.24356 273.67625,170.14138 272.96875,171.625 C 272.46596,172.67934 272.45792,172.70983 273.125,173.25 C 274.10035,174.0398 275.52516,173.91561 278.46875,172.8125 C 280.48135,172.05826 281.13777,171.66509 281.4375,171.0625 C 282.1912,169.5473 281.14907,168.30776 276.03125,164.5625 C 273.69197,162.85059 271.89119,160.99139 272.15625,160.5625 C 272.74342,159.61244 276.24414,161.2109 279.625,163.96875 C 282.15569,166.03308 285.43804,167.75 286.8125,167.75 C 288.37954,167.75 288.7626,167.22094 289.0625,164.5625 C 289.47372,160.91718 289.40943,159.53461 288.8125,158.875 C 287.84374,157.80454 287.00039,158.11523 284.78125,160.4375 C 282.74677,162.56653 282.69769,162.59375 281.25,162.59375 C 279.91737,162.59375 279.72078,162.49774 279.03125,161.59375 C 277.92472,160.14301 277.47286,157.05137 278.125,155.34375 C 278.74371,153.72371 278.73609,153.18732 278.03125,152.03125 C 277.28364,150.80502 275.93329,150.25001 273.65625,150.25 C 271.65871,150.25 271.13805,150.58771 270.1875,152.46875 C 269.65811,153.51637 269.15712,153.84929 267.6875,154.125 C 266.92355,154.26831 266.54066,154.1969 266.1875,153.84375 C 265.49916,153.15542 265.58646,152.89756 266.6875,152.4375 C 267.84618,151.95338 268.28125,151.22323 268.28125,149.84375 C 268.28125,148.60029 267.45015,147.96875 265.90625,147.96875 C 264.12526,147.96875 263.125,149.3921 263.125,151.875 C 263.125,154.01283 262.10899,155.05899 261.375,153.6875 C 261.13214,153.2337 261.17903,152.778 261.53125,151.75 C 261.68013,151.31551 261.80972,150.65639 261.9375,150 C 263.29528,148.0898 263.09162,147.53175 261.53125,145.46875 C 260.72374,144.40113 260.04875,142.4526 260.03125,141.15625 C 260.0061,139.29309 260.36665,138.94978 261.75,139.53125 C 262.71249,139.93582 264.52982,140.50422 265.8125,140.78125 C 267.09519,141.05827 268.39884,141.904 268.6875,142.65625 C 269.27276,144.18139 276,144.58374 276,143.09375 C 275.99999,140.97961 272.63484,139.03125 269,139.03125 C 264.58777,139.03125 262,136.98211 262,133.5 C 261.99999,130.79857 260.04043,126.03125 258.9375,126.03125 z M 239,145.9375 L 239.15625,146.71875 C 239.36273,147.89198 241,161.8377 241,162.40625 C 241,162.84609 241.44376,162.87499 245.40625,162.875 L 249.8125,162.875 L 250,160.9375 C 250.98131,150.65007 251.34169,146.86423 251.34375,146.4375 C 251.34597,145.97455 250.86861,145.9375 245.1875,145.9375 L 239,145.9375 z M 223.3125,148.28125 C 222.85162,148.35718 222.32911,148.66161 221.8125,149.25 C 220.88084,150.31112 220.71972,151.06755 221.21875,152 C 221.67752,152.85723 223.62688,152.77829 224.21875,151.875 C 225.53806,149.86148 224.69515,148.05347 223.3125,148.28125 z M 210.3125,153.96875 C 209.42916,153.96875 209.05671,154.14049 208.71875,154.65625 C 208.15667,155.51409 208.43454,157.87205 209.1875,158.625 C 209.8754,159.31291 211.21091,159.29304 211.84375,158.59375 C 212.62929,157.72575 212.71912,156.00331 212.03125,154.90625 C 211.53019,154.10714 211.29396,153.96876 210.3125,153.96875 z M 282.46875,153.96875 C 281.71167,153.97413 280.98472,154.52649 280.65625,155.46875 C 280.30514,156.47591 280.21065,160.08564 280.53125,160.40625 C 281.03075,160.90575 281.9646,160.3717 282.53125,159.25 C 282.8616,158.59605 283.40928,157.7144 283.75,157.28125 C 284.52406,156.29716 284.52649,155.30777 283.78125,154.5625 C 283.38597,154.16722 282.923,153.96552 282.46875,153.96875 z M 248.46875,154.125 C 248.53946,154.13952 248.60588,154.1683 248.6875,154.21875 C 249.0826,154.46293 249.22992,158.85642 248.875,159.78125 C 248.76896,160.05758 248.46801,160.3125 248.1875,160.3125 C 247.50953,160.3125 247.4075,159.73704 247.59375,156.9375 C 247.73347,154.83758 247.9738,154.02334 248.46875,154.125 z M 242.09375,154.28125 C 242.42363,154.28125 242.75741,154.39157 242.84375,154.53125 C 243.17123,155.06115 243.54296,158.59881 243.34375,159.34375 C 243.22922,159.77194 242.96903,160.15615 242.78125,160.21875 C 242.27044,160.38902 241.85003,159.01277 241.65625,156.5 C 241.49127,154.36066 241.52184,154.28126 242.09375,154.28125 z M 245.53125,154.3125 C 246.14791,154.22493 246.18751,154.31545 246.1875,156.21875 C 246.1875,157.31527 246.09869,158.63157 246,159.125 C 245.90132,159.61843 245.7056,160.00001 245.5625,160 C 245.08883,160 244.875,159.04304 244.875,156.71875 C 244.875,154.55558 244.92287,154.39891 245.53125,154.3125 z M 292.125,163.5 C 291.4536,163.5782 291.39281,163.71982 291.3125,165.125 C 291.22533,166.64995 291.23679,166.66849 292.84375,168.25 C 294.68509,170.06218 294.96876,170.70372 294.96875,172.625 C 294.96875,173.37788 295.07894,174.07894 295.1875,174.1875 C 295.57426,174.57425 295.95182,174.1456 296.90625,172.40625 L 297.875,170.65625 L 297.3125,169.375 C 296.53876,167.62582 294.57481,164.77836 293.625,164.03125 C 293.17395,163.67645 292.54845,163.45067 292.125,163.5 z M 245.75,163.75 L 237.28125,172.28125 C 232.62386,176.97818 227.43625,182.20803 225.78125,183.90625 L 222.78125,187 L 230.1875,194.40625 C 234.25135,198.47236 237.5625,201.87096 237.5625,201.96875 C 237.5625,202.06653 235.95376,203.6689 233.96875,205.53125 L 230.34375,208.90625 L 222.90625,201.46875 L 215.46875,194.03125 L 211.4375,198.0625 L 207.40625,202.0625 L 218.96875,213.625 L 230.5,225.15625 L 238.03125,217.71875 C 242.17192,213.61972 245.68058,210.25 245.8125,210.25 C 245.94443,210.25 247.65542,211.86943 249.625,213.84375 L 253.1875,217.4375 L 245.75,224.90625 L 238.28125,232.34375 L 242.3125,236.375 L 246.3125,240.40625 L 257.875,228.84375 L 269.4375,217.28125 L 261.75,209.59375 L 254.0625,201.9375 L 257.65625,198.34375 L 261.25,194.75 L 268.71875,202.21875 L 276.21875,209.71875 L 280.125,205.59375 L 284.03125,201.46875 L 272.5625,190 L 261.09375,178.53125 L 253.5,186.125 L 245.90625,193.75 L 242.4375,190.3125 L 239,186.875 L 246.46875,179.375 L 253.9375,171.90625 L 249.84375,167.84375 L 245.75,163.75 z M 199.3125,164.9375 C 199.13718,164.95459 198.96992,165.01416 198.84375,165.09375 C 198.2938,165.44065 194.08071,171.58326 193.59375,172.75 C 193.27111,173.52305 193.31628,173.62511 194.375,174.53125 C 196.08127,175.99164 196.23742,175.85753 196.5625,172.9375 C 196.61263,172.48727 197.10113,171.92915 197.9375,171.34375 C 199.52139,170.23516 199.99907,169.34737 200.1875,167 C 200.31234,165.44489 200.24779,165.16705 199.8125,165 C 199.67266,164.94635 199.48782,164.92041 199.3125,164.9375 z M 220.34375,168.9375 C 219.39618,168.94455 218.56814,169.0267 218.46875,169.1875 C 218.11988,169.752 218.67669,170.63708 219.71875,171.1875 C 221.25825,172.00068 222.7965,171.94541 223.375,171.0625 C 223.98306,170.13448 223.79036,169.40224 222.90625,169.15625 C 222.34601,169.00036 221.29132,168.93045 220.34375,168.9375 z M 289.53125,170.03125 C 288.44751,170.04593 287.26065,170.28835 286.21875,170.78125 C 284.34959,171.6655 282.9375,172.96364 282.9375,173.75 C 282.9375,174.06849 283.50182,175.00382 284.21875,175.84375 C 285.69228,177.57002 285.93945,178.23888 285.53125,179.3125 C 285.28188,179.96836 284.99551,180.10657 283.21875,180.40625 C 280.82578,180.80988 280.24459,181.34584 280.65625,182.78125 C 280.79838,183.27681 281.27629,184.05755 281.71875,184.5 C 282.42468,185.20593 282.83735,185.32992 285.21875,185.59375 C 286.71133,185.7591 288.24444,186.03324 288.625,186.21875 C 290.56239,187.1632 291.17747,189.93276 289.71875,191.1875 C 289.21126,191.62401 288.51738,191.88808 287.84375,191.90625 C 286.26334,191.94889 285.38993,192.27938 285.28125,192.84375 C 285.136,193.59794 285.69728,194.10654 287.84375,195.1875 C 290.01356,196.28019 290.47262,196.85411 290.34375,198.40625 C 290.26574,199.34585 290.10829,199.5622 289.03125,200.0625 C 288.36018,200.37421 287.8125,200.76559 287.8125,200.9375 C 287.8125,201.3179 289.13845,202.58861 290,203.03125 C 290.95223,203.52047 292.05437,203.43956 293.28125,202.75 C 294.13773,202.26862 294.35634,201.99231 294.25,201.53125 C 293.97298,200.33021 291.59336,185.38813 291.5,184.28125 C 291.42403,183.38077 291.48245,183.10941 291.875,183.03125 C 292.47012,182.91275 293.84374,184.27745 293.84375,185 C 293.84375,185.28127 294.23109,186.59217 294.71875,187.90625 C 295.2064,189.22035 295.73096,191.25191 295.875,192.40625 C 296.15819,194.67596 297.69122,201.09435 298.1875,202.0625 C 298.35531,202.38987 298.81376,203.00329 299.21875,203.4375 C 300.49111,204.8017 301.48658,204.48763 304.875,201.71875 C 306.13074,200.69261 306.59375,200.13907 306.59375,199.625 C 306.59375,198.92407 306.5827,198.90624 303.78125,198.90625 C 301.32412,198.90625 300.92117,198.82961 300.5625,198.34375 C 299.6548,197.11417 300.44459,194.77407 302.53125,192.53125 C 305.21398,189.64773 305.88733,187.94529 304.875,186.5 C 304.23171,185.58158 302.86547,185.66193 301.46875,186.71875 C 300.68678,187.31043 299.99132,187.56251 299.25,187.5625 C 298.30894,187.5625 298.15243,187.45205 297.875,186.65625 C 297.37625,185.22551 297.50897,184.63169 298.625,182.8125 C 301.54139,178.05859 301.87501,177.36801 301.875,176.28125 C 301.875,174.60818 301.17363,173.50965 300.09375,173.5 C 299.33196,173.4932 297.64468,175.14883 297.28125,176.25 C 296.86554,177.50959 296.01638,178.09374 294.625,178.09375 C 293.63058,178.09375 293.46075,177.98433 293.0625,177.03125 C 292.80223,176.40832 292.69967,175.68809 292.8125,175.25 C 293.164,173.8854 293.31986,172.37064 293.15625,171.71875 C 292.88358,170.63234 291.33749,170.00678 289.53125,170.03125 z M 200.625,172.9375 C 199.96426,172.9375 199.66103,173.57522 199.21875,175.8125 C 198.90984,177.37506 198.33661,178.27086 197.40625,178.65625 C 196.34767,179.09473 195.59646,178.86749 193.96875,177.625 C 193.05791,176.92972 192.39902,176.65625 191.625,176.65625 C 190.42515,176.65625 190.0004,177.02922 189.75,178.28125 C 189.52258,179.41838 190.07953,180.66587 192,183.25 C 194.3354,186.39243 194.63382,188.01349 193.15625,189.34375 C 192.64829,189.80105 192.52837,189.8061 190.9375,189.28125 C 190.00757,188.97446 188.48537,188.71875 187.5625,188.71875 C 185.92841,188.71875 185.875,188.74049 185.875,189.5 C 185.875,189.92893 186.09137,190.80793 186.34375,191.46875 C 186.72698,192.47223 187.01806,192.77667 188.09375,193.1875 C 188.91602,193.50153 189.58715,193.98791 189.9375,194.5625 C 191.35349,196.88468 190.0015,199.38133 187.09375,199.78125 C 185.93399,199.94076 185.5103,200.1123 185.34375,200.5625 C 184.8381,201.92943 185.75954,203.27031 188.03125,204.46875 C 188.66051,204.80071 189.66629,205.09375 190.25,205.09375 C 191.99015,205.09375 192.48084,204.14738 194.65625,196.625 C 197.72173,186.02482 197.79238,185.84376 198.8125,185.84375 C 199.20635,185.84375 199.44948,186.15737 199.65625,186.90625 C 199.97931,188.07624 199.78099,189.15246 198.65625,192.875 C 197.83437,195.59515 197.09538,200.0212 197.09375,202.125 C 197.09262,203.58547 197.11283,203.65455 198.21875,204.21875 C 198.86758,204.54976 199.90893,204.78125 200.65625,204.78125 C 201.76381,204.78125 202.01283,204.68289 202.28125,204.09375 C 202.70712,203.15906 202.45547,202.2377 201.40625,201.0625 C 200.92683,200.52549 200.53124,199.81869 200.53125,199.46875 C 200.53125,198.68975 202.03536,197.29223 203.96875,196.3125 C 204.74957,195.91683 205.6145,195.27257 205.875,194.875 C 206.3149,194.20361 206.31439,194.11054 205.875,193.625 C 205.6148,193.33748 204.87814,192.96945 204.25,192.78125 C 202.54426,192.2702 201.6935,190.02998 202.5625,188.40625 C 203,187.58879 206.05948,186.125 207.34375,186.125 C 208.49585,186.125 210.57055,184.98324 210.5625,184.34375 C 210.55029,183.37568 210.099,183.20077 207.90625,183.40625 C 205.91029,183.59329 205.72704,183.57226 205.4375,183.03125 C 205.26486,182.70866 205.12501,181.91776 205.125,181.28125 C 205.125,180.38251 205.29994,179.93418 205.96875,179.25 C 206.44244,178.76542 206.84375,178.09837 206.84375,177.78125 C 206.84375,176.37395 202.42284,172.9375 200.625,172.9375 z M 277.4375,174.96875 C 277.01579,174.9793 276.6481,175.0704 276.3125,175.25 C 275.46607,175.70301 275.62619,176.53254 276.84375,177.8125 C 277.83647,178.85606 278.09577,178.96876 279.34375,178.96875 C 280.6851,178.96875 282.62499,178.44417 282.625,178.09375 C 282.625,177.99962 282.15461,177.45197 281.5625,176.875 C 280.27452,175.61994 278.70264,174.93709 277.4375,174.96875 z M 212.59375,178.4375 C 212.13159,178.46202 211.59886,178.58379 211,178.8125 C 209.56662,179.35992 208.99871,179.90763 209.25,180.5625 C 209.39629,180.94371 209.76674,181.00674 211.15625,180.90625 C 213.05288,180.76905 214.10915,180.10641 213.96875,179.125 C 213.89823,178.63213 213.36401,178.39664 212.59375,178.4375 z M 302.875,181.25 C 302.48081,181.28481 301.93153,181.70693 301.46875,182.40625 C 301.05302,183.03445 300.71873,183.60517 300.71875,183.6875 C 300.71875,183.93799 300.97643,183.86721 302.125,183.28125 C 303.25344,182.70557 303.5956,182.25742 303.375,181.625 C 303.28182,181.35788 303.11151,181.22912 302.875,181.25 z M 188.4375,183.25 C 187.66923,183.25 187.625,183.33813 187.625,184.375 C 187.625,185.3116 187.78465,185.65911 188.75,186.53125 C 189.98918,187.6508 190.51299,187.81198 191.03125,187.1875 C 191.28817,186.87794 191.18836,186.46581 190.625,185.40625 C 189.61263,183.50224 189.37748,183.25 188.4375,183.25 z M 285.15625,187.90625 C 284.02805,187.98742 283.9283,188.07783 284,188.71875 C 284.04338,189.10659 284.24402,189.50209 284.4375,189.625 C 284.85962,189.89317 286.15047,189.92957 286.78125,189.6875 C 287.34659,189.47056 287.35829,188.60922 286.8125,188.15625 C 286.58732,187.96938 285.83897,187.85713 285.15625,187.90625 z M 207.96875,188.34375 C 207.69535,188.35581 207.38381,188.46675 207,188.625 C 206.5263,188.82031 205.90132,189.03948 205.625,189.125 C 205.00042,189.31831 204.96143,190.24267 205.5625,190.84375 C 205.81061,191.09187 206.20408,191.31251 206.4375,191.3125 C 207.11105,191.3125 208.49217,190.509 208.6875,190 C 209.1023,188.91902 208.78894,188.30758 207.96875,188.34375 z M 305.84375,193.375 C 304.65362,193.56947 302.4375,195.38465 302.4375,196.34375 C 302.4375,196.56848 302.58308,196.75001 302.75,196.75 C 303.54612,196.75 305.80249,196.04344 306.25,195.65625 C 306.89104,195.10163 306.91023,193.64763 306.28125,193.40625 C 306.16227,193.36059 306.01377,193.34722 305.84375,193.375 z M 186.15625,195.03125 C 185.29186,195.03125 185.16279,195.83362 185.90625,196.625 C 186.61652,197.38107 187.90626,197.58282 187.90625,196.9375 C 187.90625,196.28543 186.75615,195.03125 186.15625,195.03125 z M 204.78125,198.78125 C 204.67444,198.77654 204.52032,198.79228 204.34375,198.8125 C 203.74684,198.88087 203.50697,199.10342 203.4375,199.59375 C 203.3553,200.17392 203.44997,200.23715 204.15625,200.15625 C 204.75316,200.08787 204.99303,199.89657 205.0625,199.40625 C 205.12415,198.97111 205.10169,198.79538 204.78125,198.78125 z M 306.46875,203.6875 C 306.08333,203.68869 305.63389,203.9205 305.09375,204.375 C 303.93599,205.34919 303.31249,206.75438 303.3125,208.4375 C 303.3125,209.23189 303.11265,210.09203 302.875,210.40625 C 302.64318,210.71275 302.44253,211.06908 302.4375,211.1875 C 302.43249,211.30592 303.29227,211.40625 304.3125,211.40625 L 306.15625,211.40625 L 306.4375,210.3125 C 307.54719,205.97956 307.691,205.03732 307.375,204.34375 C 307.16896,203.89155 306.85417,203.68631 306.46875,203.6875 z M 287.5,204.5 C 286.73207,204.5 286.65626,204.59813 286.65625,205.5 C 286.65625,206.19607 286.83196,206.62282 287.28125,206.9375 C 287.63218,207.1833 288.28018,207.375 288.71875,207.375 C 289.33686,207.375 289.53124,207.24762 289.53125,206.78125 C 289.53125,205.73017 288.43988,204.5 287.5,204.5 z M 205.46875,204.875 C 205.10321,205.01111 204.52347,205.60554 203.625,206.71875 C 201.90068,208.85511 201.37501,209.69909 201.375,210.375 C 201.375,211.11333 202.12055,210.89235 203.46875,209.75 C 205.23667,208.25206 205.96875,207.09832 205.96875,205.84375 C 205.96875,205.06511 205.83429,204.73889 205.46875,204.875 z M 296.125,205.375 C 293.79271,205.375 293.28116,205.8167 292.375,208.5 C 291.55584,210.92564 291.05947,211.13645 288.53125,210.125 C 287.47283,209.70158 286.41279,209.41354 286.1875,209.5 C 284.93965,209.97883 285.58871,212.35231 287.53125,214.40625 C 289.82527,216.83184 290.34575,218.7741 289.09375,220.125 C 288.51284,220.75181 288.15624,220.875 286.96875,220.875 C 285.77908,220.875 285.34212,220.71197 284.53125,220 C 283.45444,219.05454 282.61291,218.93059 282.0625,219.59375 C 281.54396,220.21856 282.18205,221.5737 283.4375,222.53125 C 286.36284,224.76253 285.51492,229.16179 282.15625,229.1875 C 281.20574,229.19479 280.70823,228.98808 279.75,228.1875 C 278.89278,227.47131 278.29058,227.18751 277.59375,227.1875 C 276.40795,227.1875 276.3698,227.48606 277.21875,230 C 278.04719,232.45312 278.7475,232.98297 281.15625,232.875 L 283.03125,232.78125 L 284.78125,230.15625 C 287.11191,226.61842 289.20657,223.13884 290.125,221.34375 C 291.10556,219.42725 291.96865,218.65114 292.625,219.0625 C 292.89208,219.22988 293.14004,219.62113 293.1875,219.9375 C 293.28546,220.59035 288.10814,231.0957 286.5,233.5 C 284.81051,236.02592 284.77671,238.23738 286.4375,239.25 C 287.17959,239.70248 287.88529,239.81163 290,239.8125 C 292.90394,239.81368 293.91673,239.575 294.375,238.71875 C 294.84299,237.84433 294.0828,237.29462 292.03125,237.0625 C 289.03149,236.72315 288.09314,235.15273 288.96875,232 C 289.1312,231.41507 289.60247,230.68272 290.03125,230.34375 C 290.73951,229.78376 291.0589,229.72705 293.40625,229.875 C 294.82733,229.96457 296.71989,230.11505 297.625,230.21875 C 299.40804,230.423 301.07052,229.90617 301.40625,229.03125 C 301.77777,228.06308 301.58822,226.61947 301,226.03125 C 300.45612,225.48738 300.18739,225.44691 297.90625,225.625 C 295.60991,225.80428 295.37357,225.7705 294.875,225.21875 C 294.45595,224.75502 294.37517,224.33696 294.5,223.40625 C 294.84924,220.80248 296.59367,219.68031 300.5625,219.5 C 303.32253,219.37462 303.86622,219.12356 304.625,217.65625 C 305.1171,216.70464 305.15318,215.0907 304.6875,214.625 C 304.17035,214.10789 303.50807,214.1781 302.125,214.96875 C 300.03413,216.16404 297.28124,215.83196 297.28125,214.375 C 297.28125,213.83314 297.81746,212.78839 299.125,210.8125 C 299.99234,209.50184 300.16135,209.03811 300.09375,207.96875 C 300.02443,206.87252 299.86516,206.59157 299.03125,206.03125 C 298.25777,205.51151 297.64515,205.375 296.125,205.375 z M 186.40625,206.25 C 185.88904,206.2165 185.71892,207.00704 185.65625,208.8125 C 185.55933,211.60477 186.07507,213.35705 187.25,214.28125 C 187.75677,214.67988 188.4105,214.84375 189.375,214.84375 C 190.98916,214.84375 191.1092,214.53275 190,213.375 C 189.37599,212.72368 189.21188,212.18858 189.03125,210.34375 C 188.82755,208.26307 188.7638,208.05669 187.78125,207.15625 C 187.16159,206.58837 186.71658,206.2701 186.40625,206.25 z M 195.625,207.09375 C 193.88241,207.09375 193.51967,207.19908 192.90625,207.8125 C 192.3634,208.35534 192.21874,208.80041 192.21875,209.8125 C 192.21875,211.0073 192.32297,211.2679 193.59375,212.5 C 195.22018,214.07693 195.63487,215.24313 194.96875,216.53125 C 194.35411,217.71987 192.95909,218.12962 190.15625,217.9375 L 187.90625,217.78125 L 187.90625,218.96875 C 187.90685,219.64223 188.15448,220.54709 188.46875,221.0625 C 188.93159,221.82155 189.25883,222.00263 190.40625,222.15625 C 195.97851,222.90224 197.32416,223.60497 197.75,225.90625 C 198.03656,227.45483 197.4009,228.34629 195.21875,229.46875 C 193.58007,230.31163 193.19809,230.61712 193.125,231.25 C 192.98081,232.49847 193.87817,232.86126 197.65625,233 C 199.97566,233.08515 201.239,233.26032 201.875,233.59375 C 203.50323,234.44736 204.65379,237.095 203.96875,238.375 C 203.5751,239.11054 202.06511,239.82406 200.625,239.9375 C 199.24963,240.04582 198.47235,241.34129 199.59375,241.65625 C 200.48729,241.90722 203.51217,241.49233 204.71875,240.96875 C 205.96665,240.4272 207.125,238.92502 207.125,237.84375 C 207.125,237.03194 206.51276,235.84427 203.875,231.59375 C 200.52344,226.19302 198.64742,222.03759 199.03125,220.9375 C 199.19745,220.46118 200.38918,220.48293 200.875,220.96875 C 201.08721,221.18096 202.08808,222.90133 203.09375,224.78125 C 205.43055,229.14948 207.42772,232.27897 208.6875,233.5 L 209.6875,234.46875 L 211.1875,233.84375 C 212.00521,233.50393 212.99095,233.21875 213.375,233.21875 C 214.15945,233.21875 215.15625,232.73561 215.15625,232.375 C 215.15625,232.2446 214.39655,232.08698 213.4375,232 C 210.41736,231.72615 210.01615,230.88281 211.03125,226.6875 C 211.40377,225.14792 211.71844,223.79382 211.71875,223.6875 C 211.71982,223.3138 210.22734,221.71876 209.875,221.71875 C 209.67896,221.71875 209.11157,222.31023 208.59375,223.03125 C 207.02991,225.20886 205.61567,225.30785 204.09375,223.3125 C 203.52085,222.5614 203.27974,221.831 203.1875,220.71875 C 203.00193,218.48103 203.21867,217.89294 205.125,215.84375 C 206.93177,213.90159 207.24439,212.94724 206.4375,211.84375 C 206.06535,211.3348 206.02091,211.35519 205.46875,212.4375 C 205.14553,213.07109 204.7089,213.71583 204.5,213.875 C 203.9243,214.3136 201.87907,214.84375 200.75,214.84375 C 198.96113,214.84375 197.75599,213.02815 198.28125,211.125 C 198.80391,209.2312 198.76844,208.58227 198.1875,207.84375 C 197.66017,207.17335 197.43531,207.09375 195.625,207.09375 z M 284.125,214.625 C 283.24655,214.79834 283.09029,215.57352 283.75,216.5 C 284.57534,217.65909 285.8967,217.68512 286.03125,216.53125 C 286.12741,215.70659 284.8935,214.47333 284.125,214.625 z M 207.90625,217.5 C 206.96971,217.67446 205.43273,219.8105 205.78125,220.71875 C 206.08774,221.51747 206.80133,221.18577 207.40625,220 C 207.72846,219.36841 208.12655,218.87501 208.28125,218.875 C 208.65734,218.875 208.66067,217.79702 208.28125,217.5625 C 208.17896,217.49928 208.04004,217.47508 207.90625,217.5 z M 300.40625,221.46875 C 299.12046,221.50707 298.30783,221.74227 297.71875,222.1875 C 297.22741,222.55887 297.19429,222.64224 297.5625,222.875 C 297.79858,223.02425 299.1297,223.15384 300.5,223.15625 C 302.4157,223.15963 303.08077,223.07546 303.4375,222.71875 C 304.21888,221.93736 303.78354,221.59342 301.84375,221.5 C 301.2999,221.47381 300.83485,221.45598 300.40625,221.46875 z M 279.90625,222.90625 C 279.66962,222.92418 279.48501,223.05707 279.375,223.34375 C 279.10108,224.05756 279.14682,224.21661 279.9375,225.15625 C 280.40766,225.71501 280.94566,226.03125 281.40625,226.03125 C 282.07232,226.03125 282.10568,225.96592 281.9375,225.125 C 281.68506,223.86277 280.61613,222.85247 279.90625,222.90625 z M 190.59375,225.40625 C 190.15289,225.41176 190.02297,225.61753 189.96875,226 C 189.9171,226.3644 190.07781,226.96911 190.34375,227.375 C 190.80027,228.07173 190.93952,228.10905 192.6875,227.96875 C 194.78145,227.80067 194.90318,227.74676 194.65625,226.96875 C 194.54027,226.60332 193.98043,226.23427 193,225.9375 C 191.78876,225.57085 191.03461,225.40074 190.59375,225.40625 z M 214.15625,226.65625 C 214.08098,226.65135 213.97903,226.65957 213.90625,226.6875 C 213.35258,226.89994 213.30472,228.0547 213.8125,228.5625 C 214.31264,229.06263 214.99626,228.86415 215.09375,228.1875 C 215.19534,227.48241 214.68316,226.69055 214.15625,226.65625 z M 273.40625,231.25 L 272.4375,231.34375 L 272.5,233.21875 C 272.53143,234.24508 272.5854,235.54109 272.625,236.09375 C 272.66462,236.64637 272.61354,237.44079 272.5,237.875 C 272.38645,238.30922 272.37855,238.65717 272.5,238.65625 C 272.79308,238.65398 274.8847,233.23477 274.875,232.5 C 274.86199,231.51416 274.43972,231.15133 273.40625,231.25 z M 219.34375,231.5 C 218.96096,231.5116 218.53523,231.70471 218.34375,232.0625 C 218.02061,232.6663 217.93801,235.17468 218.21875,235.90625 C 218.50903,236.66272 218.76715,236.45256 219.40625,234.875 C 220.03504,233.3229 220.15228,232.86462 220.09375,232 C 220.06996,231.64873 219.72654,231.4884 219.34375,231.5 z M 294.96875,232.09375 C 294.71508,232.08867 294.45454,232.10799 294.1875,232.125 C 292.2698,232.2471 291.68763,232.54869 291.96875,233.28125 C 292.14727,233.74643 292.64668,233.96208 295.125,234.71875 C 295.91448,234.95979 296.61872,235.17239 296.6875,235.1875 C 297.01918,235.2603 298.12499,233.91174 298.125,233.4375 C 298.125,232.69402 296.74444,232.12932 294.96875,232.09375 z M 223.78125,235.375 C 222.81549,235.375 222.76684,235.42881 222.1875,237.0625 C 221.35704,239.40426 220.66272,239.90648 218.5,239.75 C 217.14244,239.65182 216.70393,239.51326 216.34375,239 C 214.88747,236.92483 214.25082,236.375 213.25,236.375 C 210.7693,236.375 209.43751,237.946 209.4375,240.84375 C 209.4375,242.35835 209.52491,242.54737 210.46875,243.4375 C 211.12426,244.05574 211.773,244.40625 212.28125,244.40625 C 212.71848,244.40625 213.87114,244.82646 214.84375,245.3125 C 216.38881,246.08455 216.59376,246.28628 216.59375,247 C 216.59375,247.48675 216.20626,248.33226 215.625,249.09375 C 214.0619,251.14148 213.90946,251.527 214.3125,252.5 C 214.52806,253.02044 215.05284,253.49789 215.65625,253.75 C 216.61414,254.15022 216.71446,254.11681 219.5625,252.6875 C 223.1251,250.89955 225.43186,250.54248 226.71875,251.5625 C 227.74265,252.37413 227.92499,253.50476 227.34375,255.0625 C 226.6488,256.92498 226.53907,257.86366 226.9375,258.34375 C 227.1603,258.61221 227.80779,258.78126 228.65625,258.78125 C 229.76154,258.78125 230.30132,258.5616 231.59375,257.65625 C 232.46367,257.04688 233.61841,256.47662 234.15625,256.375 C 234.6941,256.2734 235.5396,255.91271 236.0625,255.59375 C 236.85723,255.10901 237.0123,254.86744 236.9375,254.125 C 236.85055,253.26185 236.71878,253.19999 232.8125,251.75 C 227.69452,249.85026 225.02684,248.61144 222.125,246.75 C 219.71116,245.2016 219.15104,244.53252 219.96875,244.21875 C 220.47039,244.02626 220.842,244.15228 225.9375,246.25 C 229.30791,247.63751 236.68984,249.72568 237,249.375 C 237.10256,249.25906 237.08018,247.97843 236.9375,246.5625 C 236.64727,243.682 235.99601,242.07593 234.53125,240.65625 C 233.19054,239.35675 232.69284,239.65389 232.6875,241.75 C 232.68518,242.66287 232.51146,243.73026 232.3125,244.125 C 231.53133,245.67482 228.43313,245.4809 227.1875,243.8125 C 226.66947,243.11865 225.85168,240.40646 225.125,236.9375 C 224.80039,235.38779 224.76627,235.37501 223.78125,235.375 z M 269,235.5 C 267.86017,235.5 267.52955,236.16887 267.3125,238.84375 C 267.10562,241.39347 266.68927,242.61732 265.625,243.78125 C 264.74724,244.74121 262.20366,244.70367 261.21875,243.71875 C 260.83118,243.33119 260.53212,242.70621 260.53125,242.34375 C 260.52908,241.45255 259.96927,239.52517 259.71875,239.53125 C 259.60775,239.53395 259.2142,240.23786 258.84375,241.09375 C 258.47332,241.94967 257.67867,243.20754 257.0625,243.875 C 256.44632,244.54244 255.81351,245.55891 255.65625,246.125 C 255.27597,247.49397 255.29705,249.28125 255.6875,249.28125 C 255.85952,249.28125 257.62596,248.90054 259.625,248.4375 C 263.75384,247.48117 267.28965,246.3074 270.34375,244.84375 C 272.65814,243.73459 273.56695,243.59121 273.84375,244.3125 C 274.06999,244.90213 272.98167,246.11897 271,247.46875 C 269.57976,248.43612 267.42017,249.32968 260.03125,252.03125 C 256.48754,253.32693 256.21874,253.49461 256.21875,254.1875 C 256.21875,255.06228 257.86558,256.73593 260.25,258.3125 C 261.33611,259.03064 262.12302,259.34374 262.84375,259.34375 C 264.47566,259.34375 264.71335,258.83116 264,256.71875 C 263.6683,255.73658 263.40625,254.49881 263.40625,253.96875 C 263.40625,253.12665 263.52801,252.92498 264.46875,252.53125 C 266.48174,251.68871 272.17807,252.64543 274.34375,254.1875 C 275.81276,255.23355 278.37687,254.64301 278.75,253.15625 C 278.85514,252.73737 278.89093,252.35275 278.84375,252.3125 C 278.47392,251.99694 276.81841,251.3125 276.4375,251.3125 C 276.17703,251.3125 275.53685,250.84935 275,250.3125 C 274.17985,249.49236 274.03124,249.14541 274.03125,248.0625 C 274.03125,247.21841 274.20154,246.53765 274.5625,246.09375 C 275.08032,245.457 275.30048,245.42911 277.84375,245.5 C 281.05254,245.58942 281.70737,245.21708 282.8125,242.84375 C 283.73599,240.86048 283.71922,239.24558 282.75,238.09375 C 281.21099,236.26473 278.3309,235.51283 277.21875,236.625 C 276.92853,236.91522 276.54167,237.96279 276.34375,238.96875 C 276.05198,240.45172 275.78866,240.9926 274.90625,241.875 C 273.88956,242.8917 273.69528,242.96875 272.09375,242.96875 C 270.65353,242.96875 270.25811,242.8657 269.59375,242.25 C 268.85439,241.56478 268.81494,241.41869 269,239.9375 C 269.10888,239.06615 269.37124,237.90752 269.59375,237.375 C 270.09011,236.18702 269.8823,235.5 269,235.5 z M 196.96875,236.09375 C 196.25192,236.07991 196.21876,236.20644 196.21875,236.71875 C 196.21875,237.10614 196.301,237.51971 196.40625,237.625 C 196.81244,238.03116 198.749,237.78285 199.40625,237.25 C 200.30478,236.52155 199.99894,236.30536 197.9375,236.15625 C 197.52136,236.12615 197.20769,236.09836 196.96875,236.09375 z M 263.6875,237.65625 C 263.0503,237.65625 262.94021,237.81308 262.75,239.09375 C 262.63274,239.88324 262.61661,240.70889 262.6875,240.90625 C 262.86159,241.39108 263.54374,241.35585 263.96875,240.84375 C 264.15926,240.6142 264.31755,239.78855 264.34375,239.03125 C 264.38829,237.74302 264.35565,237.65625 263.6875,237.65625 z M 229.15625,237.8125 C 229.04176,237.82167 228.88681,237.89227 228.71875,238 C 227.95781,238.48784 228.06465,240.88053 228.90625,242.0625 C 229.61726,243.06101 230.45618,243.18915 230.625,242.3125 C 230.68012,242.02625 230.49662,241.52583 230.21875,241.21875 C 229.91895,240.88748 229.68824,240.14284 229.65625,239.375 C 229.60907,238.24269 229.49971,237.78499 229.15625,237.8125 z M 243.09375,242.03125 C 242.20171,242.05023 241.60558,242.09381 241.5625,242.15625 C 241.47633,242.28113 241.06404,246.15934 240.625,250.78125 C 240.18597,255.40311 239.7384,259.65756 239.65625,260.21875 C 239.52971,261.08322 239.61675,261.28809 240.1875,261.5625 C 240.61804,261.76949 243.07611,261.89383 246.96875,261.90625 C 252.49208,261.92388 253.08085,261.89313 253.3125,261.4375 C 253.47592,261.11608 253.14218,257.55686 252.40625,251.5625 L 251.25,242.1875 L 246.5,242.0625 C 245.18964,242.02886 243.98579,242.01227 243.09375,242.03125 z M 286.75,242.6875 L 285.6875,244.25 C 283.98501,246.72194 281.76378,248.77747 281.0625,248.5625 C 280.73971,248.46354 279.89803,248.33811 279.1875,248.25 C 277.58132,248.05081 277.87445,248.45202 279.90625,249.25 C 282.0406,250.08826 282.85537,250.01445 284.59375,248.84375 C 286.40819,247.62183 290.68749,243.57032 290.6875,243.0625 C 290.6875,242.81178 290.09364,242.6875 288.71875,242.6875 L 286.75,242.6875 z M 205.78125,244.1875 C 205.51348,244.18504 205.23897,244.23605 204.875,244.28125 L 203.34375,244.46875 L 204.15625,245.3125 C 204.60713,245.78828 206.23499,247.14382 207.78125,248.3125 C 209.32749,249.4812 210.65142,250.43751 210.71875,250.4375 C 210.85725,250.4375 212.87499,247.33807 212.875,247.125 C 212.875,247.04912 212.67292,247 212.4375,247 C 212.20207,247 210.75964,246.33334 209.21875,245.53125 C 207.229,244.49553 206.58457,244.19488 205.78125,244.1875 z M 242.34375,250.84375 C 242.48762,250.82324 242.60655,250.91905 242.8125,251.125 C 243.92549,252.238 244.14619,257.17429 243.1875,259.46875 C 242.63536,260.79023 241.96506,260.7749 241.40625,259.4375 C 241.07593,258.64693 240.99087,257.56534 241.0625,255.125 C 241.14599,252.28107 241.22119,251.8094 241.75,251.28125 C 242.02483,251.00677 242.19988,250.86426 242.34375,250.84375 z M 246.46875,250.875 C 246.93297,250.70587 247.35149,251.19673 247.65625,252.28125 C 248.10995,253.89573 248.04896,257.78403 247.5625,259.1875 C 247.04991,260.66632 246.37481,260.8036 245.71875,259.5625 C 245.0855,258.36453 244.99429,253.0077 245.59375,251.875 C 245.89025,251.31476 246.19022,250.97648 246.46875,250.875 z M 250.625,250.875 C 250.71797,250.86263 250.83815,250.86813 250.9375,250.90625 C 252.03935,251.32908 252.44603,257.26116 251.53125,259.40625 C 250.96506,260.73391 250.28808,260.80265 249.78125,259.5625 C 248.59801,256.66726 249.23046,251.06062 250.625,250.875 z M 223.46875,253.875 C 222.86212,253.875 222.30385,254.16488 221.6875,254.78125 L 220.78125,255.6875 L 221.46875,256.21875 C 222.42229,256.99087 222.8037,256.89614 223.625,255.6875 C 224.58534,254.27424 224.55105,253.875 223.46875,253.875 z M 267.5625,255.03125 C 267.27672,255.03125 267.23369,255.2581 267.4375,255.96875 C 267.58438,256.48088 267.71876,257.25225 267.71875,257.6875 C 267.71875,258.12278 267.84776,258.46876 268.03125,258.46875 C 268.6021,258.46875 270.88036,257.01151 270.71875,256.75 C 270.49581,256.38929 268.00251,255.03125 267.5625,255.03125 z M 236.5,256.90625 C 236.15534,256.96046 235.63147,257.19269 235.0625,257.59375 C 234.37982,258.07493 233.70644,258.46876 233.5625,258.46875 C 233.11855,258.46875 232.93031,259.00553 233.125,259.78125 C 233.23919,260.23625 233.73498,260.72433 234.375,261.0625 C 235.5783,261.69834 235.95488,261.73581 236.6875,261.34375 C 237.72199,260.7901 237.80003,257.2972 236.78125,256.90625 C 236.70911,256.87857 236.61489,256.88818 236.5,256.90625 z M 256.3125,257.21875 C 256.21894,257.23608 256.14104,257.29347 256.0625,257.375 C 255.74338,257.70627 255.50111,259.8001 255.625,261 C 255.66634,261.40052 256.02136,261.45365 256.34375,261.125 C 256.45991,261.00657 257.2132,260.78629 258.03125,260.625 C 259.96648,260.24344 259.9756,259.74911 258,258.1875 C 257.03487,257.4246 256.59319,257.16676 256.3125,257.21875 z"
     id="path2392"
     style="fill:#000000" />
</svg>
